# xmcd
#
# Track frame offsets: 
#        182
#        7855
#        32675
#        74877
#        89660
#        108170
#        120622
#        137750
#        145395
#        160132
#        180110
#        204845
#        220307
#
# Disc length: 3106 seconds
#
# Revision: 0
# Processed by: cddbd v1.5.2PL0 Copyright (c) Steve Scherf et al.
# Submitted via: ExactAudioCopy v1.0b6
#
DISCID=b20c200d
DTITLE=Jazz All Stars (1944) - Metropolitan Opera House Jam Session 19
DTITLE=44
DYEAR=1944
DGENRE=Swing
TTITLE0=Introduction
TTITLE1=Esquire Blues
TTITLE2=I Got Rhythm
TTITLE3=I Can't Give You Anything But Love
TTITLE4=Sweet Lorraine
TTITLE5=Muskrat Ramble
TTITLE6=Do Nothin' Till You Hear From Me
TTITLE7=I'll Get By2
TTITLE8=I've Got A Feeling I'm Falling
TTITLE9=Vibes Duet
TTITLE10=For Bass Faces Only
TTITLE11=Stompin' At The Savoy
TTITLE12=Rachel's Dream
EXTD=
EXTT0=
EXTT1=
EXTT2=
EXTT3=
EXTT4=
EXTT5=
EXTT6=
EXTT7=
EXTT8=
EXTT9=
EXTT10=
EXTT11=
EXTT12=
PLAYORDER=
